# Blender v2.79 (sub 0) OBJ File: ''
# www.blender.org
mtllib ramp.mtl
o Sphere
v 0.012967 0.015857 0.077714
v -0.007870 1.210948 -0.911441
v -0.012019 1.015857 -0.930203
v -0.012019 0.820767 -0.911441
v -0.012019 0.633174 -0.855877
v -0.012019 0.460287 -0.765646
v -0.012019 0.308751 -0.644216
v -0.012019 0.184388 -0.496253
v -0.012019 0.091978 -0.327443
v -0.012019 0.035072 -0.144273
v -0.007870 1.210948 -0.934348
v -0.007870 1.210948 -0.919571
v -0.007870 1.015857 -0.938492
v -0.007870 0.820767 -0.919571
v -0.007870 0.633174 -0.863536
v -0.007870 0.460287 -0.772539
v -0.007870 0.308751 -0.650078
v -0.007870 0.184388 -0.500858
v -0.007870 0.091978 -0.330615
v -0.007870 0.035072 -0.145891
v 1.432578 0.025465 -0.049837
v 0.010895 0.025465 -0.051307
v -1.511285 0.025465 -0.049028
v -1.511285 0.015857 0.077714
v 1.432578 0.015857 0.077714
v -0.096011 0.025465 -0.050167
v 0.097362 0.025465 -0.050572
v -1.507137 1.210948 -0.911441
v -1.511285 1.015857 -0.930203
v -1.511285 0.820767 -0.911441
v -1.511285 0.633174 -0.855877
v -1.511285 0.460287 -0.765646
v -1.511285 0.308751 -0.644216
v -1.511285 0.184388 -0.496253
v -1.511285 0.091978 -0.327443
v -1.511285 0.035072 -0.144273
v -0.007870 1.210948 -0.934348
v 1.432578 1.210948 -0.919571
v 1.432578 1.015857 -0.938492
v 1.432578 0.820767 -0.919571
v 1.432578 0.633174 -0.863536
v 1.432578 0.460287 -0.772539
v 1.432578 0.308751 -0.650078
v 1.432578 0.184388 -0.500858
v 1.432578 0.091978 -0.330615
v 1.432578 0.035072 -0.145891
v -0.096011 0.025465 -0.050167
v -1.511285 0.025465 -0.049028
v 0.097362 0.025465 -0.050572
v 0.010895 0.025465 -0.051307
v 1.432578 0.025465 -0.049837
v 0.012411 0.119527 0.045732
v 0.012411 0.119527 0.045732
v -1.509768 0.109920 0.174752
v 0.014484 0.109920 0.174752
v 0.013448 0.114724 0.110242
v 1.434095 0.109920 0.174752
v -0.006762 1.109920 -0.856519
v -0.006354 0.914830 -0.837309
v -0.094494 0.119527 0.046871
v -1.509768 0.119527 0.048010
v -0.006354 1.305010 -0.837309
v -1.509768 0.186041 -0.230404
v -1.509768 0.129135 -0.047235
v 0.098878 0.119527 0.046467
v -1.509768 0.278451 -0.399214
v 0.010339 0.129135 -0.051791
v 1.434095 0.119527 0.047202
v -1.509768 0.402813 -0.547178
v -1.509768 0.554350 -0.668608
v -1.509768 0.727237 -0.758839
v -1.509768 0.914830 -0.814403
v -1.509768 1.109920 -0.833164
v -1.505620 1.305010 -0.814403
v -0.005145 0.727237 -0.780416
v -0.003181 0.554350 -0.688027
v -0.000539 0.402813 -0.563692
v 0.002680 0.278451 -0.412190
v 0.006353 0.186041 -0.239342
v 0.010339 0.129135 -0.051791
v -0.008647 0.129135 -0.049513
v 1.434095 1.305010 -0.822533
v 1.434095 1.109920 -0.841454
v 1.434095 0.914830 -0.822533
v 1.434095 0.727237 -0.766497
v 1.434095 0.554350 -0.675500
v 1.434095 0.402813 -0.553039
v 1.434095 0.278451 -0.403820
v 1.434095 0.186041 -0.233577
v 1.434095 0.129135 -0.048852
v 0.029405 0.129135 -0.050322
v -0.094494 0.119527 0.046871
v -1.509768 0.119527 0.048010
v 0.098878 0.119527 0.046467
v 1.434095 0.119527 0.047202
vn 0.0000 0.0957 -0.9954
vn 0.0000 0.0000 1.0000
vn 0.0000 -0.9550 -0.2967
vn 0.0000 -0.6285 -0.7778
vn 0.0000 -0.9950 -0.0995
vn 0.0000 1.0000 0.0000
vn 0.0000 -0.8772 -0.4802
vn 0.0000 -0.4658 -0.8849
vn -0.9999 0.0086 0.0073
vn 0.0000 -0.7655 -0.6434
vn 0.0000 -0.2862 -0.9582
vn 0.0000 -0.6253 -0.7804
vn 0.9999 -0.0146 -0.0015
vn 0.0000 -0.0965 -0.9953
vn 0.0000 -0.4627 -0.8865
vn 0.0000 0.0965 -0.9953
vn 0.0000 -0.9557 -0.2944
vn 0.9999 -0.0087 -0.0072
vn -0.0004 -0.7180 0.6960
vn 0.0059 0.7180 -0.6960
vn 0.0006 -0.7180 0.6960
vn 0.9999 -0.0071 -0.0088
vn 0.0074 -0.7181 0.6959
vn -0.0006 0.7180 -0.6960
vn 0.9999 -0.0054 -0.0103
vn 0.9999 -0.0150 -0.0011
vn 0.0000 -0.7180 0.6960
vn 0.0000 -0.2840 -0.9588
vn 0.9999 -0.0036 -0.0121
vn 0.9999 -0.0014 -0.0143
vn -0.9999 0.0150 0.0011
vn 0.9998 0.0017 -0.0173
vn -0.0106 0.7181 -0.6959
vn 0.0071 0.7180 -0.6961
vn -0.9997 0.0218 -0.0055
vn 0.0000 -0.7682 -0.6402
vn 0.0000 -0.0957 -0.9954
vn 0.0000 -0.9950 -0.1004
vn 0.0000 -0.8789 -0.4771
vn -0.0002 0.9951 0.0992
vn 0.0142 0.2871 0.9578
vn -0.0042 0.7706 0.6374
vn -0.0023 0.8804 0.4743
vn 0.0153 -0.0970 0.9952
vn 0.0034 0.8796 0.4758
vn 0.0013 0.9565 0.2919
vn 0.0062 0.7693 0.6389
vn 0.0120 0.4670 0.8842
vn 0.0093 0.6299 0.7766
vn 0.0153 0.0969 0.9952
vn -0.0000 0.9972 0.0749
vn 0.0001 0.9972 0.0752
vn -0.0009 0.9566 0.2913
vn -0.0103 -0.0972 0.9952
vn -0.0103 0.0972 0.9952
vn -0.0095 0.2882 0.9575
vn -0.0081 0.4685 0.8834
vn -0.0063 0.6314 0.7754
vn 0.0002 0.9950 0.0998
vn 0.9999 -0.0103 -0.0056
vn -0.9999 0.0122 0.0038
vn -0.9999 0.0146 0.0015
vn -0.9999 0.0070 0.0088
vn 0.9999 -0.0122 -0.0038
vn -0.0059 -0.7180 0.6960
vn -0.9999 0.0054 0.0104
vn -0.9999 0.0103 0.0056
vn -0.9999 0.0036 0.0121
vn -0.0074 0.7181 -0.6959
vn -0.9999 0.0014 0.0143
vn 0.0004 0.7180 -0.6960
usemtl None
s off
f 3//1 29//1 28//1 2//1
f 22//2 26//2 47//2 50//2
f 10//3 36//3 35//3 9//3
f 16//4 42//4 43//4 17//4
f 20//5 46//5 51//5 21//5
f 11//6 12//6 38//6 37//6
f 9//7 35//7 34//7 8//7
f 15//8 41//8 42//8 16//8
f 34//9 66//9 69//9 33//9
f 8//10 34//10 33//10 7//10
f 14//11 40//11 41//11 15//11
f 27//2 22//2 50//2 49//2
f 7//12 33//12 32//12 6//12
f 46//13 90//13 95//13 51//13
f 13//14 39//14 40//14 14//14
f 6//15 32//15 31//15 5//15
f 12//16 38//16 39//16 13//16
f 19//17 45//17 46//17 20//17
f 43//18 87//18 88//18 44//18
f 27//19 21//19 68//19 65//19
f 49//20 50//20 53//20 94//20
f 23//21 26//21 60//21 61//21
f 42//22 86//22 87//22 43//22
f 26//23 22//23 52//23 60//23
f 47//24 48//24 93//24 92//24
f 41//25 85//25 86//25 42//25
f 21//26 68//26 57//26 25//26
f 25//27 57//27 55//27 1//27
f 5//28 31//28 30//28 4//28
f 40//29 84//29 85//29 41//29
f 39//30 83//30 84//30 40//30
f 24//31 54//31 61//31 23//31
f 1//27 55//27 54//27 24//27
f 38//32 82//32 83//32 39//32
f 28//33 74//33 62//33 37//33
f 37//34 62//34 82//34 38//34
f 29//35 73//35 74//35 28//35
f 17//36 43//36 44//36 18//36
f 21//2 27//2 49//2 51//2
f 2//6 11//6 37//6 28//6
f 4//37 30//37 29//37 3//37
f 23//38 48//38 36//38 10//38
f 18//39 44//39 45//39 19//39
f 26//2 23//2 48//2 47//2
f 52//40 53//40 94//40 95//40 90//40 91//40 80//40 67//40
f 71//41 75//41 59//41 72//41
f 78//42 88//42 87//42 77//42
f 79//43 89//43 88//43 78//43
f 73//44 58//44 62//44 74//44
f 63//45 79//45 78//45 66//45
f 64//46 81//46 80//46 79//46 63//46
f 66//47 78//47 77//47 69//47
f 70//48 76//48 75//48 71//48
f 69//49 77//49 76//49 70//49
f 72//50 59//50 58//50 73//50
f 55//51 57//51 68//51 65//51 52//51 56//51
f 55//52 56//52 52//52 60//52 61//52 54//52
f 80//53 91//53 90//53 89//53 79//53
f 58//54 83//54 82//54 62//54
f 59//55 84//55 83//55 58//55
f 75//56 85//56 84//56 59//56
f 76//57 86//57 85//57 75//57
f 77//58 87//58 86//58 76//58
f 67//59 80//59 81//59 64//59 93//59 92//59 53//59 52//59
f 44//60 88//60 89//60 45//60
f 36//61 64//61 63//61 35//61
f 48//62 93//62 64//62 36//62
f 33//63 69//63 70//63 32//63
f 45//64 89//64 90//64 46//64
f 22//65 27//65 65//65 52//65
f 32//66 70//66 71//66 31//66
f 35//67 63//67 66//67 34//67
f 31//68 71//68 72//68 30//68
f 50//69 47//69 92//69 53//69
f 30//70 72//70 73//70 29//70
f 51//71 49//71 94//71 95//71
